<?xml version="1.0" standalone="no"?><!DOCTYPE svg PUBLIC "-//W3C//DTD SVG 1.1//EN" "http://www.w3.org/Graphics/SVG/1.1/DTD/svg11.dtd"><svg t="1526351544012" class="icon" style="" viewBox="0 0 1024 1024" version="1.1" xmlns="http://www.w3.org/2000/svg" p-id="1924" xmlns:xlink="http://www.w3.org/1999/xlink" width="16" height="16"><defs><style type="text/css"></style></defs><path d="M325.632 1014.784l-174.592-110.592 1.536-174.592 176.64 101.376z" fill="#43A047" p-id="1925"></path><path d="M622.592 372.736l-4.096 113.664-409.6 57.856 180.736 89.6 423.936-66.048 5.632-119.808z" fill="#388E3C" p-id="1926"></path><path d="M629.248 198.656l-4.096 116.224-413.696 49.152L394.24 443.392l428.032-56.32 5.632-122.368z" fill="#388E3C" p-id="1927"></path><path d="M215.04 851.456L42.496 747.52l3.072-678.912L225.28 132.096z" fill="#64BC64" p-id="1928"></path><path d="M225.28 132.096L45.568 68.608 781.824 10.24l205.824 53.76z" fill="#6BCE6B" p-id="1929"></path><path d="M225.28 132.096l762.368-68.096-36.864 654.336-402.944 73.216-222.72 223.232 3.584-183.808-114.176 20.48L225.28 132.096z m596.992 254.976l6.144-122.368-430.592 49.152-3.584 129.536 428.032-56.32m-8.704 180.736l5.632-120.32-426.496 59.904-3.072 126.464 423.936-66.048" fill="#4CAF50" p-id="1930"></path></svg>