<?xml version="1.0" standalone="no"?><!DOCTYPE svg PUBLIC "-//W3C//DTD SVG 1.1//EN" "http://www.w3.org/Graphics/SVG/1.1/DTD/svg11.dtd"><svg t="1524819371208" class="icon" style="" viewBox="0 0 1024 1024" version="1.1" xmlns="http://www.w3.org/2000/svg" p-id="4147" xmlns:xlink="http://www.w3.org/1999/xlink" width="24" height="24"><defs><style type="text/css"></style></defs><path d="M749.568 678.4l-189.44-87.04 9.728-294.4 193.536 70.656z" fill="#705312" p-id="4148"></path><path d="M479.744 723.968l-180.736-92.672 261.12-39.936 189.44 87.04z" fill="#AA811A" p-id="4149"></path><path d="M708.096 437.76l-8.192 188.416-162.816 26.112 6.144-192.512z" fill="#4CAF50" p-id="4150"></path><path d="M537.088 652.288l-183.296-88.064 3.584-182.272 185.856 77.824z" fill="#3C963C" p-id="4151"></path><path d="M543.232 459.776L357.376 381.952l159.232-19.456 191.488 75.264z" fill="#318931" p-id="4152"></path><path d="M416.256 347.648L233.472 274.432l403.968-43.008 196.608 66.56z" fill="#FFDD7D" p-id="4153"></path><path d="M404.992 798.208l-177.664-97.28-212.992-181.76L185.344 609.28z" fill="#876217" p-id="4154"></path><path d="M834.048 297.984L1014.272 486.4l-200.704 239.616-408.576 72.192L185.344 609.28l230.4-261.632 418.304-49.664z m-84.48 380.416l13.824-310.272-274.432 34.816-9.216 321.536 269.824-46.08" fill="#FFCA28" p-id="4155"></path><path d="M185.344 609.28L14.336 519.168l219.136-244.736 182.784 73.216z" fill="#FFE8B0" p-id="4156"></path></svg>