<?xml version="1.0" standalone="no"?><!DOCTYPE svg PUBLIC "-//W3C//DTD SVG 1.1//EN" "http://www.w3.org/Graphics/SVG/1.1/DTD/svg11.dtd"><svg t="1524819095374" class="icon" style="" viewBox="0 0 1024 1024" version="1.1" xmlns="http://www.w3.org/2000/svg" p-id="3173" xmlns:xlink="http://www.w3.org/1999/xlink" width="24" height="24"><defs><style type="text/css"></style></defs><path d="M727.552 534.528l-199.68-84.992 186.88 40.448 204.8 84.992zM505.344 568.32L312.832 478.72 249.344 336.384l191.488 82.432z" fill="#CE9F1B" p-id="3174"></path><path d="M294.912 677.376l-184.32-97.792 202.24-100.864L505.344 568.32z" fill="#FFD86C" p-id="3175"></path><path d="M110.592 579.584l-56.32 98.816-1.536 212.48 178.688 116.224 3.584-224.256 59.904-105.472zM440.832 418.816L249.344 336.384l4.608-292.352 195.072 65.024z" fill="#EAB624" p-id="3176"></path><path d="M449.024 109.056L253.952 44.032 600.576 15.36l207.872 60.416z" fill="#FFD86C" p-id="3177"></path><path d="M808.448 75.776l-13.824 295.936-67.072 162.816 192 40.448 48.128 80.896-11.776 205.824-724.48 145.408 3.584-224.256 59.904-105.472L505.344 568.32 440.832 418.816l8.192-309.76z" fill="#FFCA28" p-id="3178"></path></svg>