<?xml version="1.0" standalone="no"?><!DOCTYPE svg PUBLIC "-//W3C//DTD SVG 1.1//EN" "http://www.w3.org/Graphics/SVG/1.1/DTD/svg11.dtd"><svg t="1528104368123" class="icon" style="" viewBox="0 0 1024 1024" version="1.1" xmlns="http://www.w3.org/2000/svg" p-id="3939" xmlns:xlink="http://www.w3.org/1999/xlink" width="32" height="32"><defs><style type="text/css"></style></defs><path d="M512 192.64c-175.648 0-319.36 143.712-319.36 319.36s143.712 319.36 319.36 319.36 319.36-143.712 319.36-319.36c0-175.648-143.712-319.36-319.36-319.36z m0 547.488c-25.088 0-45.632-20.544-45.632-45.632s20.544-45.632 45.632-45.632a45.76 45.76 0 0 1 45.632 45.632A45.76 45.76 0 0 1 512 740.128z m59.296-344.48s0 2.304 0 0c0 2.272-38.784 182.496-38.784 182.496s2.272-13.696 0 0-9.12 20.544-20.544 20.544c-11.392 0-18.24-9.12-20.544-22.816-4.576-13.696-38.784-175.648-38.784-175.648 0-4.576-2.272-9.12-2.272-11.392 0-34.208 27.36-61.6 61.6-61.6 34.208 0 61.6 27.36 61.6 61.6 0.032 0-2.272 4.544-2.272 6.816z m0 0z" p-id="3940" fill="#d81e06"></path></svg>