<?xml version="1.0" standalone="no"?><!DOCTYPE svg PUBLIC "-//W3C//DTD SVG 1.1//EN" "http://www.w3.org/Graphics/SVG/1.1/DTD/svg11.dtd"><svg t="1524819326136" class="icon" style="" viewBox="0 0 1025 1024" version="1.1" xmlns="http://www.w3.org/2000/svg" p-id="3851" xmlns:xlink="http://www.w3.org/1999/xlink" width="24.0234375" height="24"><defs><style type="text/css"></style></defs><path d="M108.032 864.256l166.912-78.336 433.152 59.392-146.432 86.016z" fill="#0F76BC" p-id="3852"></path><path d="M307.2 709.632l159.744-71.168-0.512 76.8-158.72 75.776z" fill="#891212" p-id="3853"></path><path d="M97.792 131.584l172.544-35.84 4.608 690.176-166.912 78.336z" fill="#0C5F8E" p-id="3854"></path><path d="M307.2 709.632l0.512 81.408-132.096-17.92-0.512-80.384z" fill="#F44336" p-id="3855"></path><path d="M175.104 692.736l164.864-69.12 126.976 14.848L307.2 709.632z" fill="#C42320" p-id="3856"></path><path d="M561.664 931.328l146.432-86.016-1.024 83.968-145.92 91.136z" fill="#0C5F8E" p-id="3857"></path><path d="M506.88 719.36l150.528-72.704-1.536 117.76L506.368 844.8z" fill="#266826" p-id="3858"></path><path d="M392.192 705.024l155.648-71.68 109.568 13.312L506.88 719.36z" fill="#2F7F2F" p-id="3859"></path><path d="M506.88 719.36l-0.512 125.44-114.176-15.872v-123.904z" fill="#4CAF50" p-id="3860"></path><path d="M687.616 742.4l-1.536 127.488-118.272-16.384 0.512-125.952z" fill="#FFC107" p-id="3861"></path><path d="M687.616 742.4l141.312-75.776-2.048 119.808-140.8 83.456z" fill="#8E6200" p-id="3862"></path><path d="M568.32 727.552l147.968-74.24 112.64 13.312-141.312 75.776z" fill="#C98F00" p-id="3863"></path><path d="M623.104 518.144l-0.512 84.48-449.024-51.2-1.024-80.384z" fill="#FFC107" p-id="3864"></path><path d="M623.104 518.144l146.432-61.952-1.024 79.36-145.92 67.072z" fill="#8E6200" p-id="3865"></path><path d="M172.544 471.04l166.912-56.32 430.08 41.472-146.432 61.952z" fill="#C98F00" p-id="3866"></path><path d="M625.152 283.136l147.456-47.104-1.024 81.92L624.64 370.688z" fill="#266826" p-id="3867"></path><path d="M169.984 246.272l168.448-43.008 434.176 32.768-147.456 47.104z" fill="#389638" p-id="3868"></path><path d="M625.152 283.136l-0.512 87.552-453.632-40.448-1.024-83.968z" fill="#4CAF50" p-id="3869"></path><path d="M875.008 766.464l132.096-78.848-3.072 121.856-131.584 86.528z" fill="#891212" p-id="3870"></path><path d="M751.616 750.592l138.24-76.8 117.248 13.824-132.096 78.848z" fill="#C42320" p-id="3871"></path><path d="M875.008 766.464l-2.56 129.536-122.88-17.408 2.048-128z" fill="#F44336" p-id="3872"></path><path d="M792.064 80.896L931.84 45.568l-10.24 486.4-137.728 68.096z" fill="#0F76BC" p-id="3873"></path><path d="M792.064 80.896l-8.192 519.168-91.136-10.24 5.12-416.768-600.064-41.472 10.24 732.672 453.632 67.072-0.512 89.088L32.768 937.472 17.408 35.328z" fill="#2196F3" p-id="3874"></path><path d="M17.408 35.328L194.048 5.12 931.84 45.568l-139.776 35.328z" fill="#77C4F7" p-id="3875"></path></svg>