<?xml version="1.0" standalone="no"?><!DOCTYPE svg PUBLIC "-//W3C//DTD SVG 1.1//EN" "http://www.w3.org/Graphics/SVG/1.1/DTD/svg11.dtd"><svg t="1524819174380" class="icon" style="" viewBox="0 0 1024 1024" version="1.1" xmlns="http://www.w3.org/2000/svg" p-id="3426" xmlns:xlink="http://www.w3.org/1999/xlink" width="24" height="24"><defs><style type="text/css"></style></defs><path d="M968.192 652.288l-196.096-82.432 10.24-219.648 199.168 70.656z" fill="#BCBFC1" p-id="3427"></path><path d="M991.744 295.424l-201.216-64.512 2.56-56.32 202.24 61.44z" fill="#279327" p-id="3428"></path><path d="M944.128 301.056l-200.192-65.024 46.592-5.12 201.216 64.512z" fill="#307F30" p-id="3429"></path><path d="M879.104 435.2l-196.096-72.704 128-29.184 200.704 69.632z" fill="#E0E1E2" p-id="3430"></path><path d="M915.456 337.408L716.8 269.824l5.12-119.296 200.192 60.928z" fill="#5FCE5F" p-id="3431"></path><path d="M922.112 211.456l101.376-10.752-7.168 123.904-100.352 12.288 6.144-125.44z m69.632 83.968l3.584-59.392-48.128 5.12-3.072 59.904 47.616-5.632" fill="#4CAF50" p-id="3432"></path><path d="M922.112 211.456L721.92 150.528l98.304-9.216 203.264 59.392z" fill="#7AE57A" p-id="3433"></path><path d="M759.296 556.544L567.808 476.16l41.984-5.632 193.024 79.36z" fill="#B27B00" p-id="3434"></path><path d="M685.056 700.416l-187.904-88.576 274.944-41.984 196.096 82.432z" fill="#DADEE0" p-id="3435"></path><path d="M1011.712 402.944l-17.92 306.176-311.296 55.808 2.56-64.512 283.136-48.128 13.312-231.424-102.4 14.336z" fill="#ECEFF1" p-id="3436"></path><path d="M682.496 764.928l-186.88-91.648 1.536-61.44 187.904 88.576z" fill="#BCBFC1" p-id="3437"></path><path d="M802.816 549.888l-193.024-79.36 10.24-275.456 196.608 64.512z" fill="#E5A300" p-id="3438"></path><path d="M729.088 241.152l-194.56-64 128-12.288 198.656 61.952z" fill="#FFDF97" p-id="3439"></path><path d="M729.088 241.152l132.096-14.336-16.896 345.088-130.048 20.48 14.848-351.232z m73.728 308.736l13.824-290.304-44.032 5.12-13.312 292.352 43.52-7.168" fill="#FFC107" p-id="3440"></path><path d="M714.24 592.384l-189.952-82.944 10.24-332.288 194.56 64z" fill="#FFCC5A" p-id="3441"></path><path d="M545.28 860.16L363.52 761.856l1.536-67.584 182.784 94.72z" fill="#BCBFC1" p-id="3442"></path><path d="M549.888 723.456l-183.296-91.648 1.024-65.536 184.32 88.064z" fill="#CDD1D3" p-id="3443"></path><path d="M581.12 585.728L395.264 501.76l44.032-5.632 187.392 82.432z" fill="#10699B" p-id="3444"></path><path d="M626.688 578.56L439.296 496.128l3.584-139.776 189.44 74.752z" fill="#1078BF" p-id="3445"></path><path d="M587.264 409.088L399.36 334.848l88.064-10.24 190.976 72.704z" fill="#1790E2" p-id="3446"></path><path d="M634.88 355.84L444.928 285.184l2.048-70.656L637.952 281.6z" fill="#1078BF" p-id="3447"></path><path d="M393.728 614.4l-179.2-87.552 46.08-6.656 181.248 86.528z" fill="#C61C1C" p-id="3448"></path><path d="M535.552 620.032l-183.808-86.016 7.168-339.968L547.328 261.12z" fill="#38B2E8" p-id="3449"></path><path d="M547.328 261.12L358.912 194.048 491.52 181.248l193.024 65.024z" fill="#71C6FF" p-id="3450"></path><path d="M680.448 350.72l-45.056 5.632 2.56-74.24-46.592 5.12-4.096 122.368 91.136-11.776-8.192 201.728-134.656 20.992 11.264-358.912 137.216-14.848-3.584 103.936z m-48.128 80.384l-46.08 6.144-5.12 148.48 45.568-7.168 5.632-147.456" fill="#2196F3" p-id="3451"></path><path d="M441.856 606.72l-181.248-86.528 2.56-142.336 182.784 78.336z" fill="#DD241F" p-id="3452"></path><path d="M398.336 434.176L217.088 356.864l46.592-5.632 182.784 76.8z" fill="#E83434" p-id="3453"></path><path d="M397.824 462.336L216.576 382.976l0.512-26.112 181.248 77.312z" fill="#F75D59" p-id="3454"></path><path d="M446.464 428.032l-182.784-76.8 2.048-118.272 184.32 69.632z" fill="#DD241F" p-id="3455"></path><path d="M348.672 528.896L169.984 445.44l46.08-5.632L396.288 522.24z" fill="#F97D7D" p-id="3456"></path><path d="M214.016 780.288L42.496 681.984l324.096-50.176 183.296 91.648z" fill="#DADEE0" p-id="3457"></path><path d="M345.088 649.216l-177.152-89.6 2.048-114.176 178.688 83.456z" fill="#F75D59" p-id="3458"></path><path d="M498.688 266.24l-10.752 360.96-142.848 22.016 3.584-120.32 47.616-6.656-2.56 92.16 48.128-7.68 4.096-150.528-48.128 6.144 0.512-28.16 48.128-6.144 3.584-125.44-48.64 5.632-2.048 76.288-48.128 6.144L353.28 281.6z" fill="#F44336" p-id="3459"></path><path d="M353.28 281.6L172.032 211.968 312.32 198.656 498.688 266.24z" fill="#FC8B8B" p-id="3460"></path><path d="M351.232 390.656L171.52 314.88l0.512-102.912L353.28 281.6z" fill="#F26666" p-id="3461"></path><path d="M181.248 515.584l142.336-4.096-106.496 14.336-3.072 254.464 335.872-56.832 2.048-69.12 99.84 85.504-106.496 120.32 2.56-71.168L177.664 855.04z" fill="#ECEFF1" p-id="3462"></path><path d="M177.664 855.04L8.192 752.128l0.512-321.024 172.544 84.48z" fill="#DADEE0" p-id="3463"></path><path d="M181.248 515.584L8.704 431.104l137.216-2.048 177.664 82.432z" fill="#F2F2F2" p-id="3464"></path></svg>