<?xml version="1.0" standalone="no"?><!DOCTYPE svg PUBLIC "-//W3C//DTD SVG 1.1//EN" "http://www.w3.org/Graphics/SVG/1.1/DTD/svg11.dtd"><svg t="1526550866960" class="icon" style="" viewBox="0 0 1024 1024" version="1.1" xmlns="http://www.w3.org/2000/svg" p-id="3267" xmlns:xlink="http://www.w3.org/1999/xlink" width="32" height="32"><defs><style type="text/css"></style></defs><path d="M863.999577 896.000188c0 17.673131-14.327104 32.000235-31.999859 32.000235H127.999436c-17.672755 0-31.999859-14.327104-31.999859-32.000235V192.000282c0-17.673131 14.327104-31.999859 31.999859-31.999859h512.000376v-31.999859H127.999436c-35.346262 0-63.999718 28.653456-63.999718 63.999718v704.000282c0 35.346262 28.653456 63.999718 63.999718 63.999718h704.000282c35.346262 0 63.999718-28.653456 63.999718-63.999718V384.000188h-31.999859v512z" fill="#1296db" p-id="3268"></path><path d="M889.175303 130.895412c7.238435 5.068711 8.99762 15.044701 3.929662 22.283512l-385.444037 550.470274c-5.067958 7.238059-15.044325 8.99762-22.283137 3.928909-7.238435-5.067958-8.997997-15.044701-3.928909-22.283513l385.442908-550.469897c5.068711-7.238811 15.045078-8.99762 22.283513-3.929285z" fill="#1296db" p-id="3269"></path><path d="M639.999812 143.999929m-16.000118 0a16.000118 16.000118 0 1 0 32.000235 0 16.000118 16.000118 0 1 0-32.000235 0Z" fill="#1296db" p-id="3270"></path><path d="M880.000071 384.000188m-16.000118 0a16.000118 16.000118 0 1 0 32.000235 0 16.000118 16.000118 0 1 0-32.000235 0Z" fill="#1296db" p-id="3271"></path></svg>