<?xml version="1.0" standalone="no"?><!DOCTYPE svg PUBLIC "-//W3C//DTD SVG 1.1//EN" "http://www.w3.org/Graphics/SVG/1.1/DTD/svg11.dtd"><svg t="1524819425066" class="icon" style="" viewBox="0 0 1024 1024" version="1.1" xmlns="http://www.w3.org/2000/svg" p-id="13025" xmlns:xlink="http://www.w3.org/1999/xlink" width="24" height="24"><defs><style type="text/css"></style></defs><path d="M542.578759 150.49269v330.893241h330.857931V150.49269h-330.857931z m289.756689 289.792h-248.620138V191.593931h248.620138v248.690759zM150.528 873.50731h330.857931v-330.963862h-330.857931v330.963862z m41.065931-289.86262h248.690759v248.761379H191.593931v-248.761379zM150.528 481.385931h330.857931V150.49269h-330.857931v330.893241z m41.065931-289.792h248.690759v248.690759H191.593931V191.593931z" fill="#cdcdcd" p-id="13026"></path><path d="M273.337379 273.302069h85.239173v85.239172H273.337379V273.302069zM273.337379 665.388138h85.239173v85.309793H273.337379v-85.309793zM665.458759 273.302069h85.203862v85.239172h-85.203862V273.302069z" fill="#cdcdcd" p-id="13027"></path><path d="M651.052138 807.017931h71.468138v61.934345h-71.468138z" fill="#cdcdcd" p-id="13028"></path><path d="M734.914207 544.556138v85.521655h-68.325517v-85.521655h-122.032552v324.396138h38.170483v-179.976828h68.325517v49.787586h217.900138v-194.206896zM790.810483 807.017931v61.934345h78.141793v-130.189242 68.254897z" fill="#cdcdcd" p-id="13029"></path></svg>