<?xml version="1.0" standalone="no"?><!DOCTYPE svg PUBLIC "-//W3C//DTD SVG 1.1//EN" "http://www.w3.org/Graphics/SVG/1.1/DTD/svg11.dtd"><svg t="1524819285284" class="icon" style="" viewBox="0 0 1024 1024" version="1.1" xmlns="http://www.w3.org/2000/svg" p-id="3719" xmlns:xlink="http://www.w3.org/1999/xlink" width="24" height="24"><defs><style type="text/css"></style></defs><path d="M842.752 793.6l-140.8-68.096-162.304-237.056 139.264 60.928z" fill="#1A262B" p-id="3720"></path><path d="M579.584 468.992L441.856 410.624l80.384-10.752 139.776 57.856z" fill="#D39A1A" p-id="3721"></path><path d="M662.016 457.728L522.24 399.872l8.192-279.04 142.336 46.592z" fill="#BF8C0C" p-id="3722"></path><path d="M357.376 885.248L228.352 808.96l473.6-83.456 140.8 68.096z" fill="#293A3F" p-id="3723"></path><path d="M182.784 1013.76l-123.904-82.944 300.544-478.72 135.168 61.44z" fill="#738E99" p-id="3724"></path><path d="M494.592 513.536l-135.168-61.44 6.144-315.392 138.24 47.616z" fill="#FFD96E" p-id="3725"></path><path d="M375.808 95.232L240.128 49.664 730.112 10.24l147.968 40.448z" fill="#FFE292" p-id="3726"></path><path d="M373.76 197.632L239.104 148.48l1.024-98.816 135.68 45.568z" fill="#FFD96E" p-id="3727"></path><path d="M494.592 514.048l9.216-328.704L373.76 198.656l2.048-102.4 502.272-44.544-4.608 96.256-118.272 11.776-13.312 318.976-247.296 35.328zM588.8 176.64l-9.728 293.376 82.432-11.264 10.752-290.304-83.456 8.192" fill="#FFCA28" p-id="3728"></path><path d="M741.376 477.696l235.52 376.832L182.784 1013.76l311.808-500.736 246.784-35.328z m-185.856 90.112l-198.144 317.44 485.376-91.648-163.84-244.736-123.392 18.944" fill="#455A64" p-id="3729"></path></svg>