<?xml version="1.0" standalone="no"?><!DOCTYPE svg PUBLIC "-//W3C//DTD SVG 1.1//EN" "http://www.w3.org/Graphics/SVG/1.1/DTD/svg11.dtd"><svg t="1524819221390" class="icon" style="" viewBox="0 0 1024 1024" version="1.1" xmlns="http://www.w3.org/2000/svg" p-id="3586" xmlns:xlink="http://www.w3.org/1999/xlink" width="24" height="24"><defs><style type="text/css"></style></defs><path d="M756.224 752.128l-188.928-90.112 2.56-78.336 189.952 86.016zM772.608 386.048L578.56 314.88l3.072-76.8 194.56 67.072z" fill="#0763A8" p-id="3587"></path><path d="M604.672 1020.928l-181.76-105.472-118.784-93.696 179.2 102.4zM465.408 803.84l-179.712-96.256 281.6-45.568 188.928 90.112z" fill="#1E88E5" p-id="3588"></path><path d="M557.056 703.488l-183.808-90.112 91.136-145.92 188.416 80.896z" fill="#127DCC" p-id="3589"></path><path d="M569.344 412.16L381.952 337.408l196.608-22.528 194.048 71.168z" fill="#1E88E5" p-id="3590"></path><path d="M652.8 548.352L464.384 467.456 381.952 337.408l187.392 74.752z" fill="#0763A8" p-id="3591"></path><path d="M308.736 943.104l-172.544-105.984-9.216-181.76 174.08 95.744z" fill="#42A5F5" p-id="3592"></path><path d="M183.296 617.472L11.776 527.36l117.248-160.256 177.664 78.848z" fill="#C0E6FF" p-id="3593"></path><path d="M301.056 751.104l-174.08-95.744-115.2-128 171.52 90.112z" fill="#2196F3" p-id="3594"></path><path d="M306.688 445.952L129.024 367.104 143.36 170.496l180.224 67.072z" fill="#90CAF9" p-id="3595"></path><path d="M922.112 177.664l-200.704-58.88H583.68l56.32-60.416L446.464 3.584 316.928 140.8 143.36 170.496l180.224 67.072L504.32 204.8l75.776-81.92 181.248 56.32z" fill="#C0E6FF" p-id="3596"></path><path d="M922.112 367.104l92.16 127.488-107.008 154.624-20.48 183.296-155.648 43.008-126.464 144.896-121.344-96.768-174.08 18.432-7.68-192-118.272-133.632L307.2 444.928l16.896-208.384L504.32 204.8 640 58.368 761.344 179.2l160.256-1.024 0.512 188.928z m-149.504 18.944l3.584-80.896-297.984 34.816-2.048 78.848 94.208 141.312L467.456 727.04l-2.048 76.8 290.816-51.712 3.584-82.432-202.752 33.792 95.744-155.136-83.456-136.192 203.264-26.112" fill="#64B5F6" p-id="3597"></path></svg>